<svg xmlns="http://www.w3.org/2000/svg" width="442.06" height="432.77" viewBox="0 0 442.06 432.77">
  <g id="Layer_2" data-name="Layer 2">
    <g id="Layer_1-2" data-name="Layer 1">
      <g id="N6ogwa.tif">
        <g>
          <path d="M304.81,339.26a5.05,5.05,0,0,0-1.55,5.57c.15.46-.23,1.14-.46,1.67-.41,1-.9,1.88-1.46,3l-1.44.23c-1.58,2-2.59,3.86-4.1,5.09-2.51,2-3.7,2.31-6.54.88a7,7,0,0,0-3.93-.82c-2.26.37-6.33-.36-7.34-2.29-2.13-4.09-6-7.75-4.07-13.11-1.46-2.37-.24-5-.61-7.49s.36-5.07.63-7.61c.05-.56.26-1.11.26-1.66,0-2.8.06-5.6,0-8.4a46.94,46.94,0,0,0-.38-4.88c-.15-1.19-.45-2.23,1.15-2.82.49-.18.73-1.37.85-2.14.18-1.14.1-2.33.24-3.48.17-1.45.55-2.88.68-4.33.23-2.47-.17-5.19,3-6.28a1.2,1.2,0,0,0,.5-1,1.64,1.64,0,0,0-.81-1c-2.64-1.17-2.88-2.13-2.17-5.09.34-1.4-.18-3-.42-4.56a71.31,71.31,0,0,1-1.27-7.46c-.15-3-2-4.87-3.61-7,1.65-2.39,1.17-3.39-1.68-4.6-1.13-.48-2-1.75-2.81-2.76-.45-.55-.47-1.72-1-1.93-2.38-1-5.24-1.26-7.19-2.75-2.22-1.71-4.48-1.38-6.8-1.86-1.66-.34-3.13-1.61-4.71-2.44a1,1,0,0,0-.73,0c-4.45,1.6-9.09.52-13.61,1a30.17,30.17,0,0,0-8.55,1.85c-4.32,1.79-8.4,4.14-12.55,6.31-.39.19-.54.79-.87,1.14-.67.73-1.38,1.42-2.07,2.12a11.35,11.35,0,0,0-1.33,1.36c-1,1.46-2.81,3.07-2.65,4.42.37,3.09-1.95,5.21-2.11,7.79a90.9,90.9,0,0,0,.51,13.59c.1,1.15,1.25,2.19,1.85,3.32.41.78,1.23,2,1,2.41-2.22,3.18-.41,6.16.22,9.19.26,1.27.63,2.52.91,3.79.41,1.83.77,3.68,1.17,5.52a53.7,53.7,0,0,1,1.31,6.19q.71,7.51,1,15.07c.06,1.52-1,3.1.37,4.55.13.13,0,.72-.16.91-2.33,2.41-2.14,5.8-3.43,8.61a10.29,10.29,0,0,1-2.12,3.23c-2.73,2.5-4.63,5.93-8.08,7.58a38.21,38.21,0,0,1-6.07,2c-3,.82-5.9,1.62-8.89,2.25a4.33,4.33,0,0,1-5.21-2.36c-.46-.87-1.54-1.41-2.5-2.23,0-3.24,0-6.69,0-10.14a8.15,8.15,0,0,1,.52-2.53c.65-1.83,1.39-3.62,2.13-5.41a10.35,10.35,0,0,1,.92-1.7c.18-.26.7-.4.72-.63.35-3.58,3.67-6.17,3.23-10.06-.16-1.39.4-2.87.65-4.3.07-.41.35-.85.25-1.2-1.37-4.71.13-9.56-.74-14.33-.41-2.28.12-4.73.19-7.11a4.19,4.19,0,0,0-.23-1.4,10.17,10.17,0,0,1-.68-1.58c-.77-5.92-1.7-11.82-2.16-17.76-.3-3.77-.48-7.49-1.73-11.09a4,4,0,0,1-.31-1.2c0-3.18,0-6.37-.07-9.56q0-4.35-.07-8.7c0-.42.09-1-.13-1.22-3.48-3.62-.21-7.38-.28-11.06a47.35,47.35,0,0,1,0-4.91c.26-3.5.7-7,1-10.48a19.31,19.31,0,0,0-.38-2.34,35.51,35.51,0,0,1,0-3.72,9,9,0,0,1,.4-1.38c.33-1.56.64-3.12,1-5.16-1.49-1.72-2.51-1.89-5-.33-2.07,1.32-4.12,2.66-6.23,3.89a6.68,6.68,0,0,1-1.9.39c-.8.17-1.81.12-2.34.6a22.31,22.31,0,0,1-8.19,4.75,4.7,4.7,0,0,0-2.49,2.63c-1,2.5-3.25,1.35-4.73,2.16s-1.2,3.72-4,2.55c-.52-.22-1.38.37-2.18.62.06,1.81-.79,2.55-2.56,3.25-3.17,1.26-5.89,3.73-9.1,4.81-3.93,1.32-6.84,4.65-11.28,5-2.42.19-4.72,1.66-7.13,2.31a11.07,11.07,0,0,1-3.44-.06,24.26,24.26,0,0,0-3.08-.12c-1.13-.3-2.27-.54-3.37-.9A41.43,41.43,0,0,0,94,238c-.86-.09-1.61-1.32-2.38-2.07-.46-.45-.78-1.21-1.32-1.4-1.68-.6-2.72-1.89-4-2.93-3-2.42-3.56-5.38-3.13-8.84,0-.41.42-.92.28-1.19-1.83-3.4-1-7.08-1.16-10.65a12.3,12.3,0,0,1,.66-3.76,22.06,22.06,0,0,1,1.77-5c2.34-4,4.73-8.08,7.45-11.86A29.16,29.16,0,0,1,98.84,183a29.64,29.64,0,0,0,7.67-8.17c.3-.44,1.28-.4,1.77-.54l3.5-5.43c.13-.21.38-.45.34-.63-1-4.7,3.87-4.59,5.67-7.25-1.47-1.36-1.41-2.44.08-4.5,1.91-2.64,2.65-6.16,3.75-9.36.66-1.89.87-4,1.59-5.82.43-1.14,1.52-2,2.18-3.1a42.31,42.31,0,0,0,2.63-4.81c1.8-4,5.92-5.84,8.53-9.09.39-.49,1.35-.5,2-.81a82.34,82.34,0,0,0,7.89-3.87c1.53-.93.42-4.12-1.14-5.73a18.51,18.51,0,0,1-3.1-5.23,9.26,9.26,0,0,1-.7-3.62,41.14,41.14,0,0,1,.39-6.28c.06-.42,1.2-.7,1.85-1a25.11,25.11,0,0,0,2.83-1.45c.91-.61,1.58-1.81,2.54-2.07,2.71-.75,5.52-1.17,8.3-1.68.48-.08,1.14.23,1.47,0,3.35-2.25,5.92.34,8.72,1.38a1.86,1.86,0,0,1,.88,1.07c1,2.88,3.24,4.23,6.12,4.64,1.29.19,2.6.21,3.9.31.16,0,.43,0,.45.12.79,3.14,2.42,1.43,4.18,1,1.41-.33,3.06.6,4.62.65,4.17.14,8.2-.47,10.77-2.27,3.74.21,6.54.33,9.32.56.65.05,1.69.4,1.81.82.54,2,1.74,2.5,3.5,1.91,1.52,2.85,3.45,3.81,5.76,3.12l13.62,15.46c1-2.14,2.22-4.39,3.18-6.74a10.73,10.73,0,0,0,.46-3.37c.32-6.82,0-13.76,1.16-20.42.61-3.46,0-6.48-.08-9.71,0-1.75.91-3.5,1-5.28.12-3.19-.2-6.4-.1-9.59.06-1.79.7-3.56.87-5.35s.12-3.81.14-5.71c0-.46-.29-1.13-.08-1.34,2.23-2.27,1.25-5,1.17-7.58-.07-2.33-.07-4.45,1.68-6.46,1.25-1.43,1.52-3.67,2.6-5.3a4.66,4.66,0,0,1,3-1.65,56.56,56.56,0,0,1,5.69-.17c3.06-.13,7.25,2.6,8.47,5.43a9.17,9.17,0,0,0,1.48,2c0,2.67-.17,5.18.05,7.66.18,2.2-1.53,4.49.33,6.65.22.25-.11,1.16-.39,1.63-1.87,3.13-1.54,6.31-.43,9.56a2.61,2.61,0,0,1,.27,1.41c-.81,2.82-1.8,5.59-2.53,8.43a9.1,9.1,0,0,0,0,3.64c.62,3.69-.11,7.19-1.16,10.68-.23.78-.65,1.77-.37,2.39,1.47,3.3-.74,6.36-.47,9.58.1,1.12-.85,2.3-1.09,3.5-.36,1.78-2.08,3.43-.28,5.48.5.57,0,2.05-.13,3.1-.17,1.4-.73,2.81-.59,4.17a77,77,0,0,0,1.62,11.15c1.2,4.8,3.43,9.27,5.62,13.72.17.35.25.81.52,1,1.57,1.37,3.12,2.78,4.8,4a38.68,38.68,0,0,0,3.76,2c1.3.71,2.88,1.19,3.79,2.25,2.2,2.58,5.51,2.7,8.2,4.15.58.31,1.38.28,1.86.68,2.62,2.17,5.16,4.44,7.74,6.66a13.47,13.47,0,0,0,1.64,1.16c2.56,1.58,5,3.24,5.62,6.52.43,2.1,1.82,3.44,3.74,4.57,1,.6,1.43,2.38,1.9,3.7a25.49,25.49,0,0,1,1.15,4.55,14.26,14.26,0,0,1-1.42,9.65c-.4.7.06,2.24.61,3.07a2.88,2.88,0,0,1,.12,3.62,7,7,0,0,0-.95,3c-.42,4.72-.68,9.45-1.07,14.17-.25,3-.67,5.91-.93,8.87a13.62,13.62,0,0,0,.21,2.28c.08,1,.54,2.16.14,2.86-1.34,2.35-.52,4.64-.36,7s-.23,4.84-.29,7.25c0,1.69.07,3.38.08,5.06a8.93,8.93,0,0,1-.12,1.64c-.1.57-.53,1.2-.39,1.68.78,2.69.06,5.6.56,8.05.75,3.67.38,7.25.35,10.75,0,4.4-.11,8.69.95,13a2.33,2.33,0,0,1-.3,1.15c-.56,1.4-1.57,2.77-1.64,4.18-.15,3.3-1.9,6.38-.91,9.92.33,1.18-1.33,2.86-.39,4.65a10.35,10.35,0,0,1,.73,3.38,2.29,2.29,0,0,1-.24,1.42c-2.5,4.07-1.5,8.33-.78,12.59a6.64,6.64,0,0,1-.06,3.17c-.56,1.59-.67,2.75.85,3.92.59.46,1.09,2.06.76,2.54C302.05,335.33,302.9,337.24,304.81,339.26ZM232.16,143.48c-.78.13-1.91,0-2.14.41-1,1.76-3,2.17-4.26,3.33-3,2.82-7.18,2.25-10.27,4.43a1.6,1.6,0,0,1-1,.06c-3.37-.49-6.09.77-8.47,3-.47.45-1,1.1-1.58,1.15-2.28.21-4.23.68-4.61,3.43,0,.22-.68.44-1.06.5-2.54.41-3.79,2-4.29,4.42a4.17,4.17,0,0,1-1.12,1.61c-.36.41-1,.63-1.21,1.08-1.84,4.06-5.19,7.48-5.17,12.31,0,.08-.05.16-.05.24-.12,3.34-3.55,6.27-1.25,9.94.11.17-.18.59-.27.9a42.11,42.11,0,0,0-1.57,5.71c-.36,2.66-.32,5.37-.48,8-.06,1.16-.13,2.33-.29,3.48-.25,1.84-.62,3.66-.86,5.51a6.46,6.46,0,0,0,.21,1.78c.42,2.61,1,5.21,1.22,7.84.07.72-1.11,1.55-1,2.28.18,2.22,1.08,4.42,1,6.59-.17,3.34.93,6.83-1.13,10.06-.44.68.31,2.14.56,3.23.15.68.69,1.45.5,2a12,12,0,0,0,.32,9,5.73,5.73,0,0,1,0,2.15c0,3.64-.2,7.3.11,10.91.43,5.07,1.24,10.1,1.9,15.15.24,1.86.52,3.72.81,5.84-1.24.33-1.88,1.15-.95,3.06,1.49,3.06,3.48,6.16,1.35,9.79-.19.32.05,1,.26,1.42.95,1.93,1.48,3.83.53,6a2.91,2.91,0,0,0,.21,2.17c1.22,2.55,1.68,5.06.18,7.67-.19.34-.38,1-.21,1.19,1.36,1.81.35,3.39-.35,5-.61,1.4-1.26,2.8-1.73,4.25a6.27,6.27,0,0,0-.51,3.29c.54,1.86,1.25,3.31-1.25,4.43-.81.36-1.1,2.1-1.44,3.26-.57,1.9-.67,4-1.53,5.72a5.48,5.48,0,0,0-.37,5.33c1.27,3.23,4,3.21,6.24,4.35.38.2,1.33-.58,2-1a13.13,13.13,0,0,1,2-1.42c1.62-.66,3.3-1.17,5-1.7,2.71-.86,3-3.79,4.59-5.6,2.1-2.38,3.28-5.57,4.77-8.46a4.25,4.25,0,0,0,.13-1.9c0-1.62-.06-3.25-.11-4.87-.14-4.37-.19-8.75-.48-13.11-.14-2.1-.82-4.16-1.12-6.26-.24-1.6.07-3.35-.45-4.82-1.33-3.74-2.88-7.37-2.9-11.45a24.29,24.29,0,0,0-.65-3,43.6,43.6,0,0,1-.79-7.07c.09-4.13.9-8.26.74-12.36-.14-3.64-.35-7,1.88-10.22,2.38-3.47,4.27-7.28,6.51-11.17,1.58,0,3.57.45,4.9-1.68,2-3.15,5.4-4.13,8.69-4.91s6.71-1,10.07-1.45a1.65,1.65,0,0,0,1-.5c.88-1.1,1.69-1.24,3-.49.82.48,2.06.25,3.11.32a19.13,19.13,0,0,0,2.62.1c1-.06,2.44,0,2.78-.5a2.3,2.3,0,0,1,3.46-.69c2,2.13,4.38,1.62,6.75,1.59a2.19,2.19,0,0,1,1.18.37,18.42,18.42,0,0,0,2.85,1.91c3.09,1.21,6.41,1.93,9.34,3.44a16,16,0,0,1,5.24,4.7,94.68,94.68,0,0,1,6.5,10.24,20.6,20.6,0,0,1,2.89,7.19c.29,2.24,2.46,5-.74,7.1-.35.23-.35,1.29-.23,1.91.49,2.46,1.33,4.87,1.61,7.35s.92,5.46-.16,7.31c-2.13,3.62-1.24,7.38-1.75,11-.23,1.57,1.43,3.37-1,4.62-.39.2-.15,1.56-.22,2.39-.14,1.8.12,3.77-.52,5.37a12.51,12.51,0,0,0-.27,9.13c-.44.92-1.19,1.72-1.11,2.44.46,4.34,1.11,8.67,1.72,13a2.42,2.42,0,0,0,.4.9,11.39,11.39,0,0,0,10.73,6c4.06-.09,6.56-2.47,6.56-6.48a2.58,2.58,0,0,1,.11-.73c1.92-5.88-.13-11.81.17-17.72.22-4.47-.28-9-.42-13.48a28.23,28.23,0,0,1,.19-3.17c.28-3.4.57-6.8.85-10.2,0-.15-.16-.32-.15-.47q.38-3.62.78-7.23a22.18,22.18,0,0,0,.38-3.11c-.07-2.46-.49-4.92-.4-7.36.13-3.26.69-6.5.9-9.76.14-2.15,0-4.31,0-6.46,0-2.9,0-5.8-.09-8.7,0-1.14-.32-2.28-.34-3.43,0-1.57.08-3.13.13-4.7a32.72,32.72,0,0,0,.09-4.31c-.27-2.5-.85-5-1.08-7.45-.1-1,.5-2,.59-3.06.25-3.18.36-6.38.64-9.56.09-1.05.61-2.07.74-3.12.65-5.51-1.15-11.17,1.26-16.6.85-1.92,1.12-4.11,1.81-6.73-.81-1.16-2.92-2.89-.2-5.18.29-.25.1-1.11.05-1.67a33,33,0,0,0-.41-3.6c-.43-2.2.31-4.84-2.31-6.25-.34-.18-.79-.62-.77-.93.18-4-3.81-5.48-5.46-8.42-1.14-2-4.47-2.85-6.79-4.25-.5-.3-1.23-.75-1.28-1.2-.28-2.55-2.29-3.55-4.11-4.45-4-2-8.18-3.65-12.29-5.44.06-.86.11-1.67.14-2.09-3.29-1.91-7.05-2.56-8.73-6.29-.22-.49-.89-.76-1.22-1.22-.59-.84-1.09-1.74-1.61-2.63s-1.19-2.1-1.84-3.11c-.51-.8-1.11-1.54-1.64-2.32-.69-1-1.34-2-2.18-3.28a2.94,2.94,0,0,0-1-4,2.58,2.58,0,0,1-.55-2.07c.84-6.21-1-12.42.06-18.63.44-2.48,1.28-5.08.89-7.46s.28-4.16.87-6.22a46.27,46.27,0,0,0,1.38-7.11c.38-3,.54-6.13.79-9.2q.66-8.05,1.3-16.12c.11-1.34.22-2.68.31-4,.06-1.1,0-2.21.14-3.29.29-2.37,1.48-4.74-.36-7-1-1.22-.24-2.1.84-2.87.46-.33,1.15-1.09,1-1.37-.94-2.35-1.49-5.39-3.27-6.71-1.54-1.13-4.63-.68-6.88-.2-2,.44-2.11,2.71-2.31,4.54-.08.79.11,2-.33,2.3-2.73,1.94-1.88,4.6-1.88,7.21s.37,5.66-.89,7.53c-1.58,2.35-1.36,3.88-.33,6a65.6,65.6,0,0,1,2.34,6.55c-3.3.13-3.14,1.7-2.7,3.53a5.54,5.54,0,0,1,.19,3c-1.13,2.89-1.62,5.67-.13,8.58a4.59,4.59,0,0,1,.52,2.37c-.4,4.77-.91,9.52-1.4,14.27a1.58,1.58,0,0,1-.29.93c-1.81,1.86-1.38,3.53.55,5a10.88,10.88,0,0,0-1.64,2.9c-1,5-1.77,10.1-2.68,15.14a18.57,18.57,0,0,1-.84,3c-.46,1.31-1.55,2.65-1.41,3.87.24,2.12-.58,3.62-1.6,5.23C233.19,141.25,232.75,142.32,232.16,143.48ZM100.42,193.55c-6.13.57-6.12.58-8,6.83-.13.45-.81.71-1.12,1.15-1.09,1.52-3.21,3.3-3,4.58a9,9,0,0,1-.67,5.07c-1.94,5.93-1,11.36,3.17,16,.8-.28,1.69-.56,2.57-.89s2.34-.54,3-1.28c1.39-1.5,2.87-1.38,4.68-1.32s3.83,1.55,5.6-.1c2.9-2.72,7.29-3.14,9.85-6.4a1.14,1.14,0,0,1,.92-.23c1.68.28,2.34-.7,2.9-2.05a3,3,0,0,1,1.47-1.59,4.6,4.6,0,0,1,2.95-.07c.42.16.72,1.74.42,2.34a24,24,0,0,1-2.91,4.2c-1.5,1.82-4.5,1.84-5.42,4.5-.16.45-1.3.56-2,.82s-1.65.33-1.77.71c-.87,2.73-3.26,2-5.12,2.48-1.6.45-3.12,1.22-4.7,1.76-1.83.64-3.69,1.18-5.54,1.77a61.48,61.48,0,0,0,8.79,4.85,1.67,1.67,0,0,0,1,0,27.5,27.5,0,0,0,4.84-1c2.14-.79,5.39,1.9,6.5-2.05,0-.07.3-.09.46-.11,4.46-.45,7-4.48,11.07-5.81a23.57,23.57,0,0,0,4.83-2.76q6.92-4.36,13.79-8.81a40.05,40.05,0,0,1,3.63-2.58c2.2-1.08,4.54-1.87,6.79-2.85a2.27,2.27,0,0,0,1.19-1.06c.62-1.84,2.12-1.61,3.57-2,2.06-.49,4.93-1,5.78-2.47,1.7-2.95,4.92-2.23,6.94-4,.79-.68,2.15-1.06,2.48-1.88.58-1.48,1.17-3.38.72-4.76-1.48-4.48-.19-8.76.36-13.09a18,18,0,0,1,1.32-3.68,71,71,0,0,0,2.54-7.26c.64-2.57.86-5.21,2.8-7.3.87-.93,1.44-2.13,2.28-3.1a21.09,21.09,0,0,1,2.48-2.33c2.4-2,4.81-4,7.23-6a20.43,20.43,0,0,1,2.79-2.16,22.52,22.52,0,0,1,3.45-1.21l.53,1.59c1.33-1.16,2.35-2.65,3.71-3.1a27.31,27.31,0,0,1,7.6-1.32,13,13,0,0,0,7.27-2.88,30.25,30.25,0,0,0,2.61-2.19,11.63,11.63,0,0,0,2.17-2.21,26.34,26.34,0,0,0,1.22-3,5.57,5.57,0,0,0-.9-6.64,10,10,0,0,1-2.2-3.25c-.68-2.12-1.64-3.59-4.1-3.33,0-6.15-5.64-7.71-8.84-11.11-3.37-3.58-8-5-13-5.28-.53.06-1.26.78-1.83.68-2.21-.4-4.16.84-6.63.23-3.31-.83-7.18-1.81-10.63.48-.44.29-1.3.07-1.92-.09a66.77,66.77,0,0,1-8.9-2.56,28.27,28.27,0,0,1-7.75-4.55,11.71,11.71,0,0,0-5.9-3,4.26,4.26,0,0,0-3,.38c-2.19,1.79-4.38,3.31-7.71,2.73.19,2,1,4,.38,5.21-1.85,3.67,1.67,4.86,3.08,6.34,1.88,2,1.81,4.63,3.46,6.48.11.11,0,.55-.12.7-1.52,1.6-3,3.27-4.65,4.72a18.45,18.45,0,0,1-3.44,2c-2.42,1.29-4.87,2.5-7.24,3.85-.84.48-1.45,1.36-2.27,1.87-2.43,1.5-4.13,3.37-3.81,5.69-1.47,1.81-2.86,3-3.61,4.55a35.18,35.18,0,0,0-1.8,5.91c-.63,2.24-1.23,4.49-2,7.2l-2.64.69v5.43c-1.94.93-4.21,5-5,7.29a7.72,7.72,0,0,1-1.31,2.57c-1.52,1.81-3.5,3.28-3.58,6,0,.39-.85.8-1.35,1.12-2.16,1.41-4.28,2.48-5.27,5.45-.77,2.33-3.08,4.46-5.22,5.94C98,191,97.81,190.75,100.42,193.55Z"/>
          <path d="M328.91,17.27a53.92,53.92,0,0,0-5.41,1.21c-3,1-4.65,3.27-5.39,6.35-.43,1.79-1.38,3.45-1.9,5.22-.39,1.3-.4,2.71-.71,4s-.83,2.76-1.25,4.13c2.7.91,5.9-.73,7.56-2.35a17.66,17.66,0,0,1,6.91-4.12c3.47-1.07,7.11-4.08,7.68-7.72.33-2,1.12-3,3.25-2.44a4.26,4.26,0,0,0,1.74.08c4.83-.91,6.47,2.84,6.78,7.11.17,2.34-.53,4.74-.85,7.18h-2.08c-.06.19-.13.3-.1.34,2.13,3.13-1.3,4.94-1.79,7.44-.52,2.67-1.09,5.33-1.79,8-.16.61-.89,1.1-1.43,1.57-1.09,1-1.06,1.86-.09,3s1.89,1.33,3,.34,2.58-1.39,3.9-2c2.19-1,4.6-2.19,6.08-4.64,1-1.73,2.51-3.09,2.31-5.33a30.92,30.92,0,0,1-.16-4.9c.14-2.08-.19-4.57,2.45-5.43a4,4,0,0,1,2.92.44c3.36,2.13,6.7,4.33,9.87,6.74a31,31,0,0,1,4.56,4.74c.21.24-.14,1.29-.52,1.64-1.28,1.19-2.69,2.22-3.43,2.81a37,37,0,0,0-4.69.72c-1.85.56-3.62,1.37-5.43,2.07-.08,0-.23,0-.24,0-.89,3.27-4.34,3.68-6.37,5.69-.74.73-1.61,1.85-2.45,1.87-3.47.08-5.42,2.28-7.65,4.47-1.68,1.66-4,2.66-6,4a5.9,5.9,0,0,0-1.1,1.13c-.44.51-.72,1.27-1.26,1.54-1.38.68-3,.93-3.39,2.85,0,.24-.68.41-1.07.52-2.31.67-4-.38-5.49-2-1.34-1.43-1.15-2.93-.73-4.63.58-2.37.9-4.82,1.44-7.21.63-2.76,1.33-5.52,2.09-8.25.83-2.95,1.9-5.83,2.56-8.81.19-.82-.63-1.94-1.19-2.78-.08-.13-1.3.42-1.95.74-2.08,1.06-4.13,2.16-6.19,3.25-.08,0-.2,0-.22.1-1.48,4.22-6.85,3.45-9.08,7.33-1.22,2.11-5.06,2.76-7.78,3.92-1,.42-1.54,1.68-3.24.84-2.35-1.16-2.79-2.71-2.45-4.94.54-3.57.83-7.2,1.65-10.71,1-4.23,2.56-8.33,3.59-12.55a42.8,42.8,0,0,0,.57-6.64c.05-.64-.09-1.54.27-1.88,3.64-3.44,3.15-8,3.35-12.31.06-1.11-.43-2.25-.43-3.37,0-2.95,2.44-4.15,4.38-5.56.47-.34,2,.15,2.62.73a35.88,35.88,0,0,0,11.44,7.78c2.58,1.05,2.37,4,2.53,6.48A17.45,17.45,0,0,1,328.91,17.27Z"/>
          <path d="M46.27,191.78c-1.5-2.84-2.66-5.09-3.87-7.3a1.49,1.49,0,0,0-.91-.76c-3.82-.39-7.18-2.61-11.25-2.38-1.93.11-4-1.52-5.94-2.38-.21-.1-.34-.37-.54-.51-1.43-1.07-11-1.07-12.26.24-2.41,2.46-5.81,1.95-8.66,3.08-.54.22-2-1.05-2.53-1.94a4.08,4.08,0,0,1,0-3c1.89-5.33,4.32-10.51,5.72-16,.62-2.38-.74-5.28-1.24-7.93-.17-.89-.47-1.76-.58-2.16,1-1.58,1.83-2.83,2.62-4.09,1.35-2.18,2.34-4.75,4.16-6.42,1.5-1.36,4-1.7,6-2.38a10.92,10.92,0,0,1,2,0,7.13,7.13,0,0,1,4.53,1c2.31,1.22,3.93,2.4,5,4.93s3.54,2.53,5.91,1a18.18,18.18,0,0,1,5.18-2,27.51,27.51,0,0,1,6.15-1,6.75,6.75,0,0,1,6.1,3.05A5.37,5.37,0,0,0,54.62,147a3.12,3.12,0,0,1,2.53,3c.62,3.7,1.19,7.41,1.63,11.13a10.05,10.05,0,0,1-.47,3.18c-1,4.53-2,9.06-3.07,13.56-.44,1.81-1.18,3.55-1.75,5.33a3.23,3.23,0,0,0-.33,1.66c.89,2.79-1,4.66-2.58,6.12C49.55,192,47.29,191.63,46.27,191.78Zm4.39-25.35.66-.25c-1.11-3-1.78-6.25-3.48-8.85-1.2-1.82-3.66-3.05-5.81-3.91-1.11-.45-2.75.56-4.17.74-1.78.23-2.23,1.39-2.34,2.89a19.7,19.7,0,0,0-.21,3.66c.31,2.57.38,5.32,1.41,7.61.69,1.53,2.9,2.34,4.34,3.58a6.11,6.11,0,0,0,7,.69C50.35,171.48,50.92,169,50.66,166.43ZM20.14,150.59c-3.36-.23-6.57,2.42-6.24,5a33.36,33.36,0,0,0,1.91,6.72,16.36,16.36,0,0,0,2,3.91A3.81,3.81,0,0,0,20,167.65a25.21,25.21,0,0,0,5.2.45c2.77,0,3.85-2.11,2.78-4.6a14.88,14.88,0,0,1-.51-3.59,5.63,5.63,0,0,0-.41-1.8c-.61-1.14-1.42-2.18-2-3.31C23.78,152.56,22.61,150.3,20.14,150.59Z"/>
          <path d="M382.9,83.36l8.4,5.6c.13.09.33.17.38.3,1.54,4,5.27,7,4.8,11.77-.1,1-1,1.91-1.2,2.93-.51,2.52-5.24,6.93-7.62,7.88-3.66,1.46-7.28,3-10,6.33-1.62,2-3.11,3.76-2.87,6.46a1.35,1.35,0,0,1-.06.49c-.58,1.61-6.26,3-7.6,1.91-.62-.51-1.34-.9-2.18-1.46,1.28-2.08.61-3.63-1.54-4.66a1,1,0,0,1-.53-.48c-1.16-3.88-4.65-6.26-6.23-9.83-.22-.5.05-1.75.38-1.88,2.46-.92,4.61-2.8,7.61-2.17a15.12,15.12,0,0,0,5.95.17c1.82-.38,3.46-2.3,5.19-2.33,4.34-.07,4.43-4.73,7.37-6.18.36-.17.31-1.4.25-2.12a10.86,10.86,0,0,0-.62-3.82,4,4,0,0,0-2.51-1.89,32.73,32.73,0,0,0-7.19-.51c-3.51.2-6.77,1.43-8.74,4.54-.88,1.39-3.16,2.28-2.14,4.78.18.44-1.33,1.72-2.21,2.44-2,1.68-4.17,3.26-6.22,4.84-3.07-5-4.7-10.2-9-13.72-1.8-1.47-.95-3.59-.43-5.33.15-.5,1.79-.59,2.76-.79,1.68-.34,3.65.85,5.09-.94.12-.15.72-.11.91,0,1.53,1.38,2.68-.25,4-.36,3.16-.29,4.57-3.18,7.08-4.26C366,80.34,368,79.9,369,77.94s2.1-3.35,4.51-3.41c.47,0,.88-1.26,1.35-1.91a14.25,14.25,0,0,0,2-2.67,10.56,10.56,0,0,0,.75-3.82c0-1.53-.77-3.6,1.12-4.11s4.24-.7,6.18.89a17.13,17.13,0,0,0,9.17,3.82c1.52.17,3.62-.94,4.49,1.49s-.28,4.55-1.48,6.56a1.8,1.8,0,0,1-1.33.83c-3-.46-4.84,1.61-6.93,3.16A5.18,5.18,0,0,1,386,80.13C383.48,80,383,81.36,382.9,83.36Z"/>
          <path d="M264.37,415c0-1.75-.48-3.68.12-5.19.82-2.07,2.45-3.82,3.75-5.7.55-.8,1.18-1.55,1.68-2.39,1.18-2,2.48-3.77,5-4.14a2.11,2.11,0,0,0,1.08-.55c1.55-1.46,2.67-.79,3.65.69.36.55.65,1.34,1.16,1.56s1.34-.07,2-.13c-.06-.52.07-1.31-.22-1.51-2-1.43-1.48-2.66-.14-4.32,2.27-2.82-.75-9-4.53-9.48-.33,0-.67,0-1,0-3.86-.16-5.35-2.11-4.48-6,.36-1.57,1.36-2.23,3-2.78,3.12-1,6.44-1.22,9.35-3.36,2.24-1.66,5.44-2.18,8.3-2.78a3.45,3.45,0,0,1,2.93,1.66,8.66,8.66,0,0,1-.23,4.47c-.3,1.18-1.56,2.16-1.69,3.31a27.94,27.94,0,0,0-.13,8.16c.43,2.22,2.17,4.15,3,6.34,1,2.69,1.63,5.53,2.56,8.26.6,1.73,1.11,3.67,2.27,5a43.75,43.75,0,0,0,6.92,6.26,7.22,7.22,0,0,1,3,5.38c.19,1.63-2,3.83-3.62,3.9-.5,0-1.23-.27-1.46,0-2.23,2.29-5.43,1.54-8,2.66-2,.87-4.05,1.79-6.08,2.69-.15.07-.37.1-.44.22-1.73,3.13-5.27,2.85-7.95,4.17a5.24,5.24,0,0,1-1.92.17c-.58,0-1.33-.22-1.72.06-4,2.83-7.08-.24-10.24-1.65-3.66-1.64-5.05-5.31-5.93-9a31.79,31.79,0,0,1-.33-6Zm19.18,8.69.37.62c1.45-1.06,3.52-1.81,4.21-3.24a42.88,42.88,0,0,0,3-9.33c.27-1.22-.32-2.73-.81-4-.37-1-1.51-1.68-1.76-2.65a3.81,3.81,0,0,0-3.9-3.12c-2.36.14-4.94.52-6,3.5a20.57,20.57,0,0,1-2.72,5.37c-1.49,2.07-1.53,4,0,5.89,1.28,1.63,3.26,2.88,4.05,4.69S281.77,423.85,283.55,423.73Z"/>
          <path d="M44.94,95.29a26.12,26.12,0,0,0,.73-3c.26-2.47,3-4.26,5.41-4.11,4.26.28,6.27,3.74,8.7,6.2A16.21,16.21,0,0,0,68,98.7c1.48.37,2.9.94,4.38,1.34a17.22,17.22,0,0,0,3.1.55c1.81.13,3.63.07,5.44.2,2.75.21,3.7,2.11,2.49,4.7a9.35,9.35,0,0,0-1,3c-.33,3.67-1.84,6.3-5.56,7.5-1.94.62-1.53,2.39-1.1,3.81.56,1.86,1.41,3.86-.29,5.33-2.21,1.89-3.22,4.38-4.63,6.76-1.16,1.94-3.41,4.21-5.41,4.47-3.58.46-7.36-.29-11-.91-2.19-.37-4.3-1.13-5.66-3.46-.46-.78-2.76-.66-4.21-.63-2.31,0-4.62.37-6.93.58s-3.78-1.66-3.72-4a14.73,14.73,0,0,0-1.36-7.12c-.56-1.09-.25-2.61-.45-3.91A2.08,2.08,0,0,1,34,114.23c.27-.06.29-.92.59-1.25,1-1,1.85-2,3.59-1,3.13,1.81,6.51,3.21,9.61,5.08,1.23.75,1.79,2.67,3,3.36a40.94,40.94,0,0,0,7,2.67,19.24,19.24,0,0,0,2.87.33c3.56.6,6.28-2.13,5.43-5.6-.46-1.94-1.19-3.81-1.82-5.7a1.33,1.33,0,0,0-.41-.62c-2.3-1.61-4.56-3.28-6.95-4.72-.48-.29-1.55.21-2.26.54-2.89,1.33-6.63.39-7.91-2.18a4,4,0,0,1-.43-2.79C47.59,98.87,47.4,97.65,44.94,95.29Z"/>
          <path d="M174.55,395.52c-1.34.67-3.46,1.58-5.41,2.78s-1.63,3-1,4.89a10.69,10.69,0,0,1-.48,8.89c-.64,1.18-2.21,1.8-3.15,2.86-2.51,2.84-5.64,3.39-9.18,2.88s-6.94-.89-10.42-1.32c-.08,0-.2,0-.23-.07-1.89-3.07-6-2.52-8.21-5.09-.37-.44-1-.83-1.09-1.29a21.25,21.25,0,0,1,2.75-13.6c.29-.48,1.39-.52,2.14-.67,1.5-.31,2.32-.78,1.28-2.51a44.67,44.67,0,0,1-2.32-4.89,1.76,1.76,0,0,1-.19-1.18c1.34-3.19,2.46-6.52,4.26-9.44.8-1.31,2.95-1.85,4.57-2.57a17.66,17.66,0,0,1,4.33-1.45c1.94-.32,3.58.32,5.45,1.34,2.73,1.5,6.09,1.82,9.16,2.73a16.88,16.88,0,0,1,9.43,7c.65,1,.12,2.89-.13,4.33C175.78,391.11,175.19,393,174.55,395.52Zm-22.77,14.67c2.61-.58,3.25-.85,3.64-3.07.15-.78-.86-2.07-1.68-2.68-2.06-1.53-4.3-2.85-6.51-4.18-2-1.18-2.47-.81-2.93,1.4-.53,2.55,1.49,3.57,2.79,4.9A41,41,0,0,0,151.78,410.19Zm14.63-15.33.88-.85c-1.47-2.63-2.93-5.27-4.44-7.88-.17-.29-.67-.41-1-.56L154,382.21c-.14.61-.95,2.14-.54,2.62a25.15,25.15,0,0,0,5.16,4.55c2,1.31,5.18.88,5.86,4.22C164.56,394.13,165.73,394.45,166.41,394.86Z"/>
          <path d="M104.47,363.37l3.07-5.09c1.25-.69,2.89-1.46,4.39-2.46,2.74-1.83,8-1.3,10.94.66A25.86,25.86,0,0,0,130,359.6c1.38.41,2.34.69,2.94,2.15a9.63,9.63,0,0,0,2.25,2.88c1.87,1.9,3.86,3.69,5.72,5.61a1.67,1.67,0,0,1,.18,1.51,44.94,44.94,0,0,1-2.38,4.5,18.7,18.7,0,0,1-3,4.17,5.64,5.64,0,0,1-3.47,1.13c-2.7.06-3.37.54-3.49,3.21-.1,2.07-.12,4.15-.29,6.21-.36,4.21-3.22,6.18-6.9,7a19.87,19.87,0,0,1-12-.84c-4.66-1.8-7.81-4.79-10.86-8.3a3.45,3.45,0,0,0-1.89-.92c-2.43-.46-3.08-1.64-1.94-3.73a60.33,60.33,0,0,1,3.39-6,13.09,13.09,0,0,1,3.52-3.23c2.2-1.45,3.51-5.3,2.74-8.93-.19-.89-.45-1.77-.68-2.65Zm2.22,12.36c0,3,0,5.69,0,8.38a5.67,5.67,0,0,0,.15,1.23c.62,2.5,3.24,4.74,5.65,4.58.81-.06,2.19-.69,2.25-1.18.17-1.37.24-3.16-.5-4.12-1.26-1.63-3.17-2.76-4.92-4.19l1.07-1.92Zm21.7-1.74c-.21-1.6.07-3.21-.61-4a45,45,0,0,0-5.83-5.18,1.71,1.71,0,0,0-1.66.28,3,3,0,0,0-.52,2.25C121.1,371,123.63,373.32,128.39,374Z"/>
          <path d="M420.17,225.62l-13,1.26c-.95-3-1.95-5.78-2.7-8.64a4.26,4.26,0,0,1,.62-2.51c.74-1.59-.3-7-1.69-8a1.8,1.8,0,0,0-1.34-.22c-3.29.81-5.09,3.41-5.1,6.9a7.33,7.33,0,0,1-.81,3.16,5.48,5.48,0,0,0,1.41,6.38c.93.72,1.42,3.91.65,4.7-1.31,1.33-2.51,1.47-4.38.48-3.23-1.71-4.41-5-6.67-7.43-4.09-4.4-1.93-9.65-1.82-14.53s2.62-8.83,6.76-11.72c.88-.62,1-2.28,1.61-3.72,1,.07,2.34.2,3.63.23,1,0,2.39.9,2.8-1,0-.11.72-.28.87-.14,1.76,1.49,3.55.08,5.32.15a11.34,11.34,0,0,1,2.75.7c.4.12.75.53,1.12.52,4.6-.11,7.17,3.9,11,5.39.37.15.58.68.87,1,.56.7,1.15,1.39,1.66,2.12.62.88,1.83,2.06,1.61,2.66-.5,1.31,0,1.89.68,2.79,1.94,2.47,1.76,3.58-.05,6.32a4.72,4.72,0,0,0-.66,3.33,6,6,0,0,1-3.1,7.08C421.4,223.41,421,224.53,420.17,225.62Zm-7.56-17c.29.75.71,2,1.26,3.15.32.66.82,1.65,1.3,1.7a3,3,0,0,0,2.07-1c1.82-2.08,1-4.65-1.7-6.93-1.59-1.33-2.13-.56-2.57.86A16.62,16.62,0,0,0,412.61,208.66Z"/>
          <path d="M375.27,147.47c-.71-2.74-1.45-5.6-2.18-8.47-.33-1.27-.85-2.39,1-3.29.74-.36.58-2.3,1.14-3.36a9.83,9.83,0,0,1,2.24-2.78c2.41-2.09,5-4,7.34-6.14.48-.43.35-1.54.53-2.53a7.67,7.67,0,0,0,7.71-.05c.67-.39,1.81-.1,2.7,0,1.91.3,3.79.9,5.7,1,3.35.22,3.59.31,4.17,3.46,3.67.7,8.86,7.48,9.35,11.28.65,5-.45,9.66-2.06,14.12-1.3,3.63-3.71,6.89-7.83,8.17a2.43,2.43,0,0,0-1.26.74c-1.88,2.56-4.53,2.51-7.28,2.29-1.33-.11-2.69.07-4-.16-3-.5-5.92-1.12-8.84-1.83-.53-.13-.89-.92-1.35-1.39-1.26-1.28-2.58-2.52-3.8-3.85-1-1.06-1.81-2.23-2.72-3.33-.45-.55-1-1.06-1.41-1.62-.33-.4-.62-.85-.92-1.27ZM405,135c-.93-4-.93-4-4.75-3a5,5,0,0,1-1.45,0c-3.51-.13-8.76,3.19-10.25,6.28-1,2.2-2.45,4.23-3.55,6.42a5.14,5.14,0,0,0-.43,2.64,28.76,28.76,0,0,0,.85,3.47,3.11,3.11,0,0,0,4.27,2.23c3.07-1.55,6.3-3,9-5,1.84-1.42,3-3.81,4.2-5.92a19.92,19.92,0,0,0,1.35-4.21C404.53,136.93,404.78,136,405,135Z"/>
          <path d="M185,386.26c2.18.31,4.19,1.1,6.21-1,.93-1,3.69-.53,5.48-.13a101.63,101.63,0,0,1,10.19,3c.85.28,2.14,1.14,2.13,1.72,0,2.29,1.43,3.54,2.68,5.07a6.09,6.09,0,0,1,1.2,3.09c.33,3.28.47,6.57.65,9.87a4.13,4.13,0,0,1-.25,1.42c-.6,2-1.91,4-1.71,5.95.39,3.67-2.59,4.41-4.37,6.19-1.07,1.06-2.37,1.91-3.55,2.87-.5.4-.91,1.12-1.45,1.23-3.28.67-6.67,1.92-9.86,1.55a25.32,25.32,0,0,1-8.92-2.79c-2.82-1.57-4.32-5-5.89-8.17-1.88-3.82,1.36-6.51.94-9.82,0-.24,1.28-.93,2-.93,3.9,0,7.8.17,11.7.19a36.4,36.4,0,0,0,5.22-.31c2.05-.28,3.16-2.34,1.87-3.78a89.41,89.41,0,0,0-7.16-6.72c-.28-.25-1-.12-1.45,0-3.42.58-6.83,1.19-10.25,1.79-.14,0-.38,0-.43,0-1,1.61-2.67,1.71-3.42.39-.56-1-.15-2.93.5-4.06a25.17,25.17,0,0,1,4.41-5.6C182.22,386.56,183.78,386.59,185,386.26Zm7,27.27c-.3.91-.61,1.73-.82,2.58s-.64,2.17-.38,2.33c1.33.82,3.16,2.17,4.25,1.77,2-.75,3.77-2.5,5.48-4a2.27,2.27,0,0,0,.5-2c-.15-.4-1.22-.61-1.89-.63C196.84,413.48,194.53,413.53,192,413.53Z"/>
          <path d="M232.11,386.83a35,35,0,0,1,4.8-1.19c3-.37,6.12-.4,9.17-.7a15.94,15.94,0,0,0,4-.92,2.14,2.14,0,0,1,3.05,1.63,8,8,0,0,1-.06,3.74c-2.89.35-3.24,3.16-4.07,4.79-1.19,2.36-2.52,4.81-2.14,8.05.5,4.27,1.57,7.58,5,10.4,3.7,3,2.63,7.9-1.62,9.94a40,40,0,0,0-7.19,4.1,3.18,3.18,0,0,1-4.42,0,12.51,12.51,0,0,1-1.75-1.74c-2.17-2.36-2.88-2.31-5.07,0-1.8,1.92-3.72,3.74-5.63,5.56a1.91,1.91,0,0,1-1.29.48c-1.28-.06-2.56-.35-3.85-.38-1.53-.05-2-.69-1.84-2.2.52-4.08,1.44-8.09-.36-12.22-.73-1.66-.23-3.92-.06-5.89A2,2,0,0,1,220.2,409a13.56,13.56,0,0,1,4.34.86c.69.29,1,1.41,1.56,2.12,2.32,3.06,7.5,2.8,9.32-.63.47-.87.09-2.25,0-3.38a26.19,26.19,0,0,1-.53-3.88,10.79,10.79,0,0,0-2.17-7.46,4.92,4.92,0,0,0-3.69-2,6.1,6.1,0,0,1-3.72-2.62c-.44-.65.23-2.36.83-3.34C227.29,386.74,229.16,386,232.11,386.83Z"/>
          <path d="M68.56,62.83l3.16-1.65.34.55c.78-1.14,1.58-2.27,2.34-3.43,1-1.48,2-2.77,4-2.62a6.25,6.25,0,0,0,2.21-.36c2.63-.83,4.79.58,4.4,3.28-.44,3-.89,5.78-4.24,7.76-5.33,3.17-3.78,5.48.77,9.2.56.46,1.34.77,1.71,1.35A2.47,2.47,0,0,0,86.67,78a2.43,2.43,0,0,1,2.19.53c1.35,1.78,4.91,2.23,6.19.31,1.48-2.23,3.47-4.45,2.62-7.58a1.56,1.56,0,0,1,.53-1.39c2.42-1.34,5.58-.3,6.12,2.44.42,2.19,1.8,4.39.17,7-1,1.67-1,4.06-1.31,6.14-.32,2.69-3.46,6-6.39,6.75a11.07,11.07,0,0,0-2.88,1.23c-1.92,1.13-3.78.83-5.67,0a19.22,19.22,0,0,0-3.77-1.58c-2.22-.43-4.08-1.08-5.26-3.25-.5-.92-1.64-1.51-2.52-2.22-2.32-1.85-4.72-3.6-7-5.54-1.45-1.25-2.65-1.21-4.24-.21-1,.61-2.73,1.25-3.34.79A5.5,5.5,0,0,1,60,77.7c-.19-4.28.22-8.59.09-12.88-.07-2.62,1.71-4.12,3-5.89.88-1.24,4.13.13,4.86,1.91C68.24,61.59,68.42,62.38,68.56,62.83Z"/>
          <path d="M432.1,178.82c-3.54.54-7.06,1.14-10.61,1.59a28,28,0,0,1-5.71.24c-5.35-.47-10.14,1.68-15.15,2.88-2,.48-3.63.92-4.35,3-3.32,0-4.64,3.06-7,4.48-.74.44-2.27.69-2.69.27a7.26,7.26,0,0,1-1.74-3.41,60.85,60.85,0,0,1-.91-6.34,64.66,64.66,0,0,1-.85-8.05,16.64,16.64,0,0,1,1.26-5.69c.33-.88,1.48-2,2.25-2a3.26,3.26,0,0,1,2.5,1.86c.55,2.14,2.25,1.71,3.54,2.44,3,1.68,5.51.68,8.36.12a83.43,83.43,0,0,1,10-.88,30,30,0,0,1,4.13-.09,4,4,0,0,0,3.87-1.67,5.82,5.82,0,0,1,3-1.73c2.85-.8,3.4-4.62,6.67-4.85,2.53-.18,4.81.07,6.56,2.12,3.16,3.72,5.95,7.63,6.74,12.63.29,1.83-.25,3-2.14,3.18-2.54.27-5.1.41-7.66.61Z"/>
          <path d="M255.35,179.68c-.2.54-.66,1.15-.54,1.6.52,1.89.56,3.28-2,3.51-.37,0-1,1.44-.86,2,.58,2.07.53,3.57-2,4a2.29,2.29,0,0,0-1.16.84c-1.33,1.54-2.83,1.43-4,0a3.45,3.45,0,0,0-4.46-1c-2.42,1.32-3.47-.34-4.46-1.68a10.8,10.8,0,0,1-1.35-4c-.46-2-.58-4.14-1.15-6.13-.84-3,.77-5.1,3.89-5.17a5.92,5.92,0,0,0,3-1.25c1.49-1.06,2.82-2.35,4.27-3.48a1.2,1.2,0,0,1,1.11-.08c1.14,1.27,2.2,2.62,3.28,3.94a15.54,15.54,0,0,0,2,2.43c1.69,1.33,3.51,2.5,5.28,3.73Z"/>
          <path d="M202.5,129.92c-2.69,1.92-5,3.78-7.49,5.26a16.59,16.59,0,0,1-5.65,2.1,73.09,73.09,0,0,1-8.39.38c-4.07.14-6.32-2.74-4.85-6.62,1.18-3.11,2.93-6,4.33-9a36,36,0,0,0,1.33-4.12l7.72-8c3.26,3,3,3.88.34,7.44a27.47,27.47,0,0,1-5.07,5.31c-1.15.91-1.42,2.91-2.11,4.41-.41.88-.87,1.73-1.35,2.68,1.36,2.53,2,2.8,5.54,1.74,2.58-.78,5.71-1.11,7.48-2.8,2.1-2,6-1.72,6.73-5.41.08-.42,1.49-.53,2.23-.88,2.34-1.12,4.57-2.91,7-3.27,2.28-.34,4.79.81,7.18,1.68C213,125,206.58,125.8,202.5,129.92Z"/>
          <path d="M141.22,151.46c.09,1.95-1.23,3.19-3.48,3.26-1.71.05-5.27-2.7-4.6-3.59a14.56,14.56,0,0,1,5-4.24C139.46,146.25,141.1,148.85,141.22,151.46Z"/>
          <path d="M163.82,148.93c-1.67-.53-3.37-1-5-1.63-.35-.12-.82-.85-.72-1.09a9,9,0,0,1,1.49-2.44c.33-.38,1.06-.36,1.55-.64,3.56-2.11,5.41-1.34,6.23,2.63C167.74,147.62,166.53,148.63,163.82,148.93Z"/>
        </g>
      </g>
    </g>
  </g>
</svg>
