<svg xmlns="http://www.w3.org/2000/svg" width="565.14" height="220.9" viewBox="0 0 565.14 220.9">
  <defs>
    <style>
      .cls-1 {
        fill: #231f20;
      }

      .cls-2 {
        fill: #ed1c24;
      }
    </style>
  </defs>
  <g id="Layer_2" data-name="Layer 2">
    <g id="Layer_1-2" data-name="Layer 1">
      <g>
        <path class="cls-1" d="M27.86,165.32a2.24,2.24,0,0,1,.11,1.3q-.36,3.9-.77,7.79c-.21,2.09-.45,4.18-.68,6.26-.17,1.56-.33,3.11-.5,4.66,0,.17-.06.33-.1.57h-.74c-.76-.09-1.52-.16-2.27-.32s-.84-.21-.83-1.1c.05-2.18.09-4.35.15-6.53,0-.8-.06-.89-.8-.73-1.37.3-2.73.62-4.1.91-.95.21-1.9.38-2.85.53-.79.13-.8.11-.78.93,0,2.22.09,4.45.13,6.67,0,.15,0,.3,0,.5a16.8,16.8,0,0,1-3.37.39c-.09-.92-.17-1.76-.25-2.6q-.33-3.54-.65-7.08c-.12-1.43-.2-2.87-.33-4.31-.23-2.47-.49-4.95-.74-7.43a2.64,2.64,0,0,1,0-.28l3.8-.86c.11,1.25.23,2.52.33,3.79.13,1.61.24,3.22.37,4.82a4.54,4.54,0,0,0,.09.51c.08.36.32.5.61.4a13.35,13.35,0,0,1,2.74-.29c1.51-.18,3-.29,4.56-.42.25,0,.5,0,.74-.05.72,0,.76,0,.81-.82q.11-1.65.12-3.3c0-1.14-.05-2.29-.07-3.43,0-.17,0-.34,0-.56C24.41,164.89,26.13,165.32,27.86,165.32Z" transform="translate(0 -1.39)"/>
        <path class="cls-1" d="M43.47,167.93a2.8,2.8,0,0,1-1.7-.08.59.59,0,0,0-.19,0h-.06a12.11,12.11,0,0,1-2.88.19c-1,0-1.93,0-2.9.05-.36,0-.48.25-.53.55-.21,1.08-.42,2.17-.62,3.26-.05.27-.09.54-.15.92l5.59-.14a9.27,9.27,0,0,1-.67,3.63c-.69.06-1.39.14-2.09.19-1.08.07-2.17.11-3.25.17-.42,0-.63.21-.67.67-.1.85-.15,1.69-.22,2.53S33,181.29,32.9,182c-.07.53.08.71.6.65,1.13-.12,2.25-.26,3.37-.4s2.52-.33,3.78-.51c1.07-.16,2.14-.35,3.21-.52.48-.08,1-.13,1.58-.22-.27.59-.48,1.08-.72,1.55-.44.86-.9,1.71-1.32,2.58a.69.69,0,0,1-.64.45c-1.58.09-3.15.23-4.73.28-2.19.08-4.39.11-6.58.16H29.32c.24-3.31.63-6.65.88-10s.48-6.71.73-10.13c4.24-.47,8.51-.6,12.84-.83C43.66,166.08,43.57,167,43.47,167.93Z" transform="translate(0 -1.39)"/>
        <path class="cls-1" d="M67.56,188.06H62.87l-7.26-10.58c-.53.11-.53.41-.47.72a56,56,0,0,1,.72,7.31c.1,1.19.22,2.38.32,3.58,0,.28,0,.58,0,1l-1.28-.3c-1.14-.27-2.27-.54-3.41-.79a.84.84,0,0,1-.7-.8c-.51-3.22-1-6.43-1.58-9.65q-.68-4-1.38-8-.45-2.61-.95-5.21c-.2-1,0-1.36,1.09-1.47s2.27-.3,3.4-.38c1.61-.11,3.22-.19,4.84-.21a7.77,7.77,0,0,1,1.86.3c1.66.48,3.3,1,5,1.52a1.2,1.2,0,0,1,.89.9c.38,1.42.78,2.83,1.09,4.26a1.89,1.89,0,0,1-.78,2.12A38.08,38.08,0,0,0,61.08,175a11.28,11.28,0,0,0-1,1.24Z" transform="translate(0 -1.39)"/>
        <path class="cls-1" d="M83.26,167.93a2.76,2.76,0,0,1-1.69-.08.65.65,0,0,0-.2,0h-.06a12.11,12.11,0,0,1-2.88.19c-1,0-1.93,0-2.9.05-.36,0-.48.25-.53.55-.21,1.08-.41,2.17-.61,3.26,0,.27-.1.54-.16.92l5.59-.14a9.27,9.27,0,0,1-.67,3.63c-.69.06-1.39.14-2.09.19-1.08.07-2.17.11-3.25.17-.41,0-.62.21-.67.67-.1.85-.14,1.69-.22,2.53s-.14,1.46-.23,2.18c-.07.53.08.71.6.65,1.13-.12,2.25-.26,3.37-.4s2.52-.33,3.78-.51c1.07-.16,2.14-.35,3.21-.52.48-.08,1-.13,1.58-.22-.27.59-.48,1.08-.72,1.55-.43.86-.9,1.71-1.32,2.58a.68.68,0,0,1-.64.45c-1.57.09-3.15.23-4.73.28-2.19.08-4.39.11-6.58.16H69.11c.24-3.31.63-6.65.88-10s.49-6.71.73-10.13c4.24-.47,8.51-.6,12.84-.83C83.45,166.08,83.36,167,83.26,167.93Z" transform="translate(0 -1.39)"/>
        <path class="cls-1" d="M23.18,206.91a.59.59,0,0,1,.67-.28l2,.54a.85.85,0,0,1-.21,1l-3,3.76c-.21.26-.41.54-.7.92l4.7,2.5a8.38,8.38,0,0,1-1.43,2.5,23.94,23.94,0,0,1-5-2.17c-.7-.45-.82-.45-1.2.27A12,12,0,0,1,16,219.53c-.27.23-.51.48-.76.73a7,7,0,0,1-5.25,2,2.17,2.17,0,0,1-1-.36,8.49,8.49,0,0,1-2.23-2.32,3.19,3.19,0,0,1-.41-2.52A14.87,14.87,0,0,1,8.18,213c.36-.52.7-1.07,1.05-1.61a3,3,0,0,1,.28-.33c.66-.66,1.32-1.32,2-2a.72.72,0,0,0,.09-1,14.81,14.81,0,0,1-1.33-2.75,6.42,6.42,0,0,1,.52-4.85,14.59,14.59,0,0,1,2.62-3.38c0-.06.15-.11.18-.19.34-.91,1.14-1.07,1.95-1.21a.57.57,0,0,0,.18,0c1.42-.62,2.46,0,3.37,1.06a13.28,13.28,0,0,1,1.88,3.13,2.13,2.13,0,0,1-.38,2.14q-2,2.9-4,5.79c-.23.34-.28.61.07.92,1,.88,2,1.78,3.07,2.76C21,209.85,22.08,208.39,23.18,206.91Z" transform="translate(0 -1.39)"/>
        <path class="cls-1" d="M43,198.64c.87,1.07,1.67,2.15,2.5,3.23s1.68,2.21,2.51,3.32,1.52,2.22,2.45,3.26c.09-.16.15-.22.15-.27,0-2.52.15-5,.36-7.52.12-1.57.09-3.15.12-4.72,0-.4.21-.61.56-.46,1.57.67,3.14,1.37,4.78,2.1,0,.49-.06,1-.14,1.45-.32,2-.62,4-1,6.05-.41,2.26-.86,4.52-1.32,6.77s-.92,4.36-1.4,6.53a9.27,9.27,0,0,1-.42,1.15,4.29,4.29,0,0,1-.69-.62c-.64-.87-1.26-1.75-1.87-2.64s-1.4-2-2.06-3c-.86-1.32-1.72-2.64-2.52-4s-1.53-2.74-2.3-4.1a5.45,5.45,0,0,0-.51-.66,5.42,5.42,0,0,0-.2.69c-.29,2.52-.59,5-.83,7.56-.17,1.66-.22,3.32-.38,5-.15,1.47-.39,2.93-.59,4.48-2.16.09-4.28.08-6.46.08a2.77,2.77,0,0,1,0-.46c.31-.94.62-1.87.94-2.8s.71-2,1-3a102.38,102.38,0,0,0,2.9-11.82c.44-2.6.93-5.18,1.39-7.77.05-.3.07-.6.1-.9l.16-.06C41.17,196.53,42.08,197.57,43,198.64Z" transform="translate(0 -1.39)"/>
        <path class="cls-1" d="M60.27,202.13a16,16,0,0,1,2-3.63l.07-.09c.47-1.64,2-2.17,3.25-2.86a1.87,1.87,0,0,1,1.24,0,6.18,6.18,0,0,1,3.68,3.11c2.47,4.64,3.24,9.53,1.38,14.6A27.07,27.07,0,0,1,70,216.8c-.52,1-1.07,1.91-1.6,2.86a11,11,0,0,1-.61,1.05c-.3.43-.59,1-1,1.19a3.69,3.69,0,0,1-2.69.22c-1.34-.48-2.64-1.07-3.93-1.66a1.67,1.67,0,0,1-.65-.69A10.29,10.29,0,0,1,58.19,215c0-.91,0-1.83,0-2.74A21.23,21.23,0,0,1,60.27,202.13Z" transform="translate(0 -1.39)"/>
        <path class="cls-1" d="M100.4,201.73c-.56,1.22-1.13,2.44-1.71,3.65q-1.39,2.9-2.8,5.77c-.27.55-.55,1.09-.84,1.63a2.71,2.71,0,0,1-2.43,1.43,9.61,9.61,0,0,1-3.45-.44,4,4,0,0,1-2.65-2.46,20,20,0,0,1-.74-2.31,3.7,3.7,0,0,1,0-.59c0-.27,0-.56-.33-.77a5.51,5.51,0,0,0-.67.7c-.89,1.22-1.72,2.48-2.63,3.67a7,7,0,0,1-2.78,2.35,3.21,3.21,0,0,1-4.17-1.43,6.76,6.76,0,0,1-.63-1.92,6.23,6.23,0,0,1,.13-2.36c.26-1.26.43-2.51.75-3.76.37-1.45.8-2.89,1.21-4.37a17.53,17.53,0,0,1,2.54.38c-.09.39-.15.71-.23,1-.35,1.54-.72,3.08-1,4.63a4,4,0,0,0,0,2.18h.43A4.27,4.27,0,0,0,81,207.3c1.27-1.36,2.57-2.68,3.84-4,.31-.36.79-1,1.06-1.34a.52.52,0,0,1,.7-.23l1.7.72c.29.12.19.39.2.62a20.78,20.78,0,0,0,.11,2.37,16.84,16.84,0,0,0,.62,2.47,1.82,1.82,0,0,0,.47.66,4.49,4.49,0,0,0,2,.82,1.3,1.3,0,0,0,.39,0c0-.06.06-.11,0-.13a1.08,1.08,0,0,1,.23-1.07c.59-.87,1.16-1.75,1.71-2.65.65-1.08,1.25-2.2,1.93-3.26a15.85,15.85,0,0,1,2.06-3,.74.74,0,0,1,.94-.26l1.88.7a1.14,1.14,0,0,1,.25.18C100.93,200.51,100.68,201.13,100.4,201.73Z" transform="translate(0 -1.39)"/>
      </g>
      <g>
        <path class="cls-1" d="M219.81,183.16V185l0,1,5.53-.35h1.29l-.29,3-1.61.32-4.84.27-.19,3.72v1.27l0,4.08-3.12.06L216.48,182l-.21-3.09h10.14l-.26,2.45-1.72.08-1.63,0h-3v1.71Z" transform="translate(0 -1.39)"/>
        <path class="cls-1" d="M245.12,199.17c-1.56-.1-3.12-.24-4.69-.28a1.34,1.34,0,0,1-1.25-.85c-.35-.68-.74-1.34-1.19-2.16-.92.91-1.76,1.67-2.5,2.53a2.14,2.14,0,0,1-1.74.81h-2.82a2.53,2.53,0,0,1-2-1.19,7.53,7.53,0,0,1-1.21-3.8,48.18,48.18,0,0,1,1.18-9.21c.28-1.53.72-3,1.14-4.52a5,5,0,0,1,.7-1.12l3,.32a40.54,40.54,0,0,1-.87,9,7.37,7.37,0,0,0,.08,1.93.87.87,0,0,0,.86.79,1.1,1.1,0,0,0,1.25-.61c1-2.42,2.08-4.84,3.09-7.27.26-.63.59-1,1.29-1h.26l.36,0c1.64-.12,1.72-.15,2.16,1.57.83,3.25,1.57,6.52,2.32,9.8.39,1.68.72,3.39,1.09,5.13A2.4,2.4,0,0,1,245.12,199.17Z" transform="translate(0 -1.39)"/>
        <path class="cls-1" d="M258.84,181.18c0,.36-.19.48-.51.5-.7,0-1.37.14-2.18.18-.1.69-.16.38-.27,1.06L254.32,192c-.4,2.35-.82,4.69-1.21,7-.21,1.23-.36,2.47-.58,3.7s-.39,1.32-1.6,1c-.41-.11-.8-.28-1.22-.43a9.1,9.1,0,0,1,.32-2.92c.51-3,1.06-5.9,1.61-8.84a46.52,46.52,0,0,0,.82-8.4c0-.25,0-.49,0-.74.07-.84-.15-.79-1-.85s-1.89-.13-2.84-.2c-.6-.05-1.2,0-1.84-.07,0-.29-.09-1.4-.09-1.63a.65.65,0,0,1,.66-.71c1.43-.16,2.86-.32,4.27-.57,2.2-.38,4.38-.82,6.57-1.23l.55-.09C258.83,178.2,258.81,180.15,258.84,181.18Z" transform="translate(0 -1.39)"/>
        <path class="cls-1" d="M277.85,199.17c-1.56-.1-3.12-.24-4.69-.28a1.34,1.34,0,0,1-1.25-.85c-.35-.68-.74-1.34-1.19-2.16-.92.91-1.76,1.67-2.5,2.53a2.14,2.14,0,0,1-1.74.81h-2.82a2.53,2.53,0,0,1-2-1.19,7.53,7.53,0,0,1-1.21-3.8,48.18,48.18,0,0,1,1.18-9.21c.28-1.53.72-3,1.14-4.52a5,5,0,0,1,.7-1.12l3,.32a40.54,40.54,0,0,1-.87,9,7.37,7.37,0,0,0,.08,1.93.87.87,0,0,0,.86.79,1.1,1.1,0,0,0,1.25-.61c1-2.42,2.08-4.84,3.09-7.27.26-.63.59-1,1.29-1h.26l.36,0c1.64-.12,1.72-.15,2.16,1.57.83,3.25,1.57,6.52,2.32,9.8.39,1.68.72,3.39,1.09,5.13A2.4,2.4,0,0,1,277.85,199.17Z" transform="translate(0 -1.39)"/>
        <path class="cls-1" d="M300.84,201.93h-4.7l-7.26-10.58c-.52.1-.53.4-.46.71a57.8,57.8,0,0,1,.72,7.31c.09,1.2.22,2.39.31,3.58a8.81,8.81,0,0,1,0,1l-1.28-.3-3.4-.79A.83.83,0,0,1,284,202c-.51-3.22-1-6.44-1.58-9.66q-.66-4-1.37-8c-.31-1.74-.62-3.47-1-5.21-.2-1,0-1.36,1.1-1.46s2.26-.31,3.39-.39c1.61-.11,3.23-.19,4.85-.21a7.77,7.77,0,0,1,1.85.3c1.67.48,3.31,1,5,1.52a1.19,1.19,0,0,1,.9.91c.38,1.41.77,2.83,1.09,4.26a1.91,1.91,0,0,1-.78,2.11,38.21,38.21,0,0,0-3.13,2.71,10.27,10.27,0,0,0-1,1.25Z" transform="translate(0 -1.39)"/>
        <path class="cls-1" d="M316.53,181.79a2.77,2.77,0,0,1-1.69-.07.47.47,0,0,0-.19-.06h-.07a12.11,12.11,0,0,1-2.88.19c-1,0-1.93,0-2.89,0-.37,0-.48.26-.54.55-.2,1.08-.41,2.17-.61,3.26-.05.27-.09.54-.16.92l5.59-.14a8.88,8.88,0,0,1-.67,3.63c-.68.07-1.38.15-2.09.19-1.08.07-2.16.11-3.24.17-.42,0-.63.21-.68.67-.09.85-.14,1.69-.22,2.54s-.13,1.45-.23,2.17c-.06.53.08.72.61.66l3.37-.41,3.78-.51c1.07-.16,2.13-.35,3.2-.52l1.59-.21c-.27.58-.48,1.07-.72,1.54-.44.87-.91,1.71-1.33,2.58a.68.68,0,0,1-.63.45c-1.58.09-3.16.23-4.73.29-2.2.08-4.39.11-6.59.15-.67,0-1.35,0-2.12,0,.23-3.31.63-6.65.88-10s.48-6.72.73-10.14c4.24-.47,8.51-.59,12.84-.83C316.73,180,316.63,180.85,316.53,181.79Z" transform="translate(0 -1.39)"/>
      </g>
      <g>
        <path class="cls-1" d="M417.26,196.91c-1.57-.09-3.13-.24-4.69-.27a1.31,1.31,0,0,1-1.25-.86c-.35-.68-.74-1.33-1.2-2.16-.91.92-1.76,1.68-2.5,2.54a2.14,2.14,0,0,1-1.74.81h-2.81a2.57,2.57,0,0,1-2-1.2,7.45,7.45,0,0,1-1.2-3.79,47.58,47.58,0,0,1,1.17-9.22c.29-1.53.73-3,1.15-4.51a5,5,0,0,1,.7-1.13l3,.33a41.15,41.15,0,0,1-.88,9,7.4,7.4,0,0,0,.09,1.93.86.86,0,0,0,.86.79,1.08,1.08,0,0,0,1.24-.61c1-2.43,2.08-4.84,3.1-7.27.26-.63.59-1.05,1.29-1h.26l.36,0c1.64-.13,1.72-.15,2.15,1.57.83,3.24,1.57,6.52,2.33,9.79.38,1.69.72,3.39,1.09,5.14A2.39,2.39,0,0,1,417.26,196.91Z" transform="translate(0 -1.39)"/>
        <path class="cls-1" d="M428.44,178c.87,1.07,1.67,2.15,2.5,3.23s1.68,2.21,2.51,3.32,1.52,2.22,2.45,3.26c.09-.16.15-.22.15-.28,0-2.51.15-5,.35-7.51.13-1.57.1-3.15.13-4.72,0-.4.21-.61.56-.46,1.57.67,3.14,1.37,4.78,2.1-.05.49-.07,1-.14,1.45-.32,2-.62,4-1,6.05-.4,2.26-.85,4.52-1.31,6.77s-.92,4.36-1.4,6.53a9.27,9.27,0,0,1-.42,1.15,3.9,3.9,0,0,1-.69-.62c-.64-.87-1.26-1.75-1.88-2.64s-1.39-2-2.05-3c-.86-1.32-1.72-2.64-2.52-4s-1.53-2.74-2.3-4.11a6.83,6.83,0,0,0-.51-.65,5,5,0,0,0-.2.69c-.29,2.52-.59,5-.84,7.56-.16,1.65-.21,3.32-.38,5-.14,1.47-.38,2.93-.58,4.48-2.16.09-4.29.07-6.47.08a2.61,2.61,0,0,1,0-.46c.31-.94.62-1.87.94-2.8s.71-2,1-3a102.08,102.08,0,0,0,2.91-11.83c.44-2.59.93-5.17,1.39-7.76.05-.3.07-.6.1-.9l.16-.06C426.66,175.92,427.57,177,428.44,178Z" transform="translate(0 -1.39)"/>
        <path class="cls-1" d="M458.57,182.88c2.32,2.22,4.68,4.39,7.16,6.43a8.57,8.57,0,0,0,2.68,1.77.69.69,0,0,1,.34.29c.34.71.67,1.42,1,2.14a1.63,1.63,0,0,1,0,.5,9.81,9.81,0,0,1-1.09,0c-.75-.08-1.5-.23-2.26-.29a7.22,7.22,0,0,1-3.41-1.6,38,38,0,0,1-4.15-3.32,14.82,14.82,0,0,1-1.33-1.3,16.79,16.79,0,0,0-3.26-2.69,4.92,4.92,0,0,1-.67-.51,1.12,1.12,0,0,0-1.52-.16c-.77.38-1.56.75-2.34,1.11-.62.29-1.25.56-1.86.83.12,2.38.25,4.76.38,7.23a2.91,2.91,0,0,1-.81,0c-1.5-.34-3-.71-4.51-1.08,0-1.23.08-2.41.14-3.59.09-1.93.17-3.85.31-5.78.06-.83.24-1.65.37-2.48a12.33,12.33,0,0,0,.24-1.48,1,1,0,0,1,.83-1c.88-.29,1.75-.59,2.64-.84a8.87,8.87,0,0,1,1.23-.14,5,5,0,0,1-.15,2.19,21.4,21.4,0,0,0-.59,2.63,2.28,2.28,0,0,0,.73,0c.83-.29,1.65-.63,2.48-.94.56-.22,1.14-.41,1.71-.62,1.13-.43,2.26-.85,3.38-1.3.94-.38,1.87-.82,2.82-1.19a24.46,24.46,0,0,1,2.75-1,4.72,4.72,0,0,1,1.5,0,.47.47,0,0,1,.3.22c.22.32.55.86.74,1.2.28.53.13.84-.4,1.1-1.14.55-2.28,1.13-3.4,1.73-.74.39-1.47.82-2.28,1.29A1.82,1.82,0,0,0,458.57,182.88Z" transform="translate(0 -1.39)"/>
        <path class="cls-1" d="M481,178c.87,1.07,1.67,2.15,2.5,3.23s1.68,2.21,2.51,3.32,1.52,2.22,2.45,3.26c.09-.16.15-.22.15-.28,0-2.51.15-5,.35-7.51.13-1.57.09-3.15.12-4.72,0-.4.22-.61.57-.46,1.57.67,3.13,1.37,4.78,2.1-.05.49-.07,1-.14,1.45-.32,2-.63,4-1,6.05-.4,2.26-.85,4.52-1.31,6.77s-.92,4.36-1.4,6.53a9.27,9.27,0,0,1-.42,1.15,3.9,3.9,0,0,1-.69-.62c-.64-.87-1.26-1.75-1.88-2.64s-1.39-2-2.05-3c-.86-1.32-1.72-2.64-2.52-4s-1.53-2.74-2.31-4.11a6.44,6.44,0,0,0-.5-.65,5,5,0,0,0-.2.69c-.29,2.52-.59,5-.84,7.56-.16,1.65-.21,3.32-.38,5-.14,1.47-.38,2.93-.59,4.48-2.16.09-4.28.07-6.46.08a2.61,2.61,0,0,1,0-.46c.31-.94.62-1.87.94-2.8s.71-2,1-3a102.08,102.08,0,0,0,2.91-11.83c.44-2.59.93-5.17,1.39-7.76,0-.3.07-.6.1-.9l.16-.06C479.25,175.92,480.17,177,481,178Z" transform="translate(0 -1.39)"/>
        <path class="cls-1" d="M498.36,181.52a15.74,15.74,0,0,1,2-3.63.28.28,0,0,0,.06-.09c.48-1.64,2-2.17,3.26-2.86a1.81,1.81,0,0,1,1.24,0,6.13,6.13,0,0,1,3.67,3.11c2.48,4.64,3.25,9.53,1.39,14.59a27.77,27.77,0,0,1-1.88,3.58c-.52,1-1.07,1.91-1.61,2.86a9.15,9.15,0,0,1-.6,1c-.31.43-.59,1-1,1.19a3.69,3.69,0,0,1-2.69.22c-1.34-.48-2.64-1.07-3.94-1.66a1.65,1.65,0,0,1-.64-.69,10.2,10.2,0,0,1-1.34-4.81c0-.91,0-1.83,0-2.74A21,21,0,0,1,498.36,181.52Z" transform="translate(0 -1.39)"/>
        <path class="cls-1" d="M538.49,181.12c-.56,1.22-1.13,2.44-1.72,3.65q-1.38,2.89-2.79,5.77c-.27.55-.55,1.09-.84,1.63a2.71,2.71,0,0,1-2.43,1.43,9.67,9.67,0,0,1-3.46-.44,4,4,0,0,1-2.64-2.46,20.09,20.09,0,0,1-.75-2.31,3.81,3.81,0,0,1,0-.59c0-.27,0-.56-.34-.77a7.39,7.39,0,0,0-.67.7c-.88,1.22-1.71,2.47-2.62,3.67a7.12,7.12,0,0,1-2.78,2.35,3.21,3.21,0,0,1-4.17-1.43,6.73,6.73,0,0,1-.63-1.93,6.19,6.19,0,0,1,.13-2.35c.26-1.26.43-2.51.75-3.76.37-1.45.8-2.89,1.21-4.37a17.73,17.73,0,0,1,2.54.38c-.09.38-.16.71-.23,1-.35,1.54-.72,3.08-1,4.63a4,4,0,0,0-.05,2.17,3.08,3.08,0,0,0,.43,0,4.19,4.19,0,0,0,2.77-1.44c1.27-1.35,2.57-2.67,3.84-4,.31-.35.78-.95,1-1.33a.53.53,0,0,1,.71-.23l1.69.71c.29.13.2.4.2.63,0,.79,0,1.59.11,2.37a18.26,18.26,0,0,0,.63,2.47,1.82,1.82,0,0,0,.47.66,4.5,4.5,0,0,0,2,.82,1.26,1.26,0,0,0,.39,0c0-.07.07-.11.06-.13a1.08,1.08,0,0,1,.23-1.07c.59-.87,1.16-1.75,1.7-2.65.66-1.08,1.25-2.2,1.93-3.27a16.69,16.69,0,0,1,2.06-3,.76.76,0,0,1,.94-.25l1.89.7a2,2,0,0,1,.25.18C539,179.9,538.77,180.52,538.49,181.12Z" transform="translate(0 -1.39)"/>
        <path class="cls-1" d="M548.83,178c.87,1.07,1.68,2.15,2.51,3.23s1.67,2.21,2.51,3.32,1.51,2.22,2.45,3.26c.09-.16.15-.22.15-.28-.05-2.51.15-5,.35-7.51.12-1.57.09-3.15.12-4.72,0-.4.22-.61.56-.46,1.58.67,3.14,1.37,4.78,2.1,0,.49-.06,1-.14,1.45-.31,2-.62,4-1,6.05q-.61,3.39-1.32,6.77c-.44,2.18-.92,4.36-1.4,6.53a9.27,9.27,0,0,1-.42,1.15,4.29,4.29,0,0,1-.69-.62c-.64-.87-1.26-1.75-1.87-2.64s-1.39-2-2.06-3c-.85-1.32-1.71-2.64-2.51-4s-1.54-2.74-2.31-4.11a5.5,5.5,0,0,0-.51-.65,7,7,0,0,0-.2.69c-.28,2.52-.58,5-.83,7.56-.17,1.65-.22,3.32-.38,5-.15,1.47-.38,2.93-.59,4.48-2.16.09-4.28.07-6.46.08a1.91,1.91,0,0,1,0-.46c.3-.94.62-1.87.94-2.8s.7-2,1-3a100,100,0,0,0,2.9-11.83c.44-2.59.93-5.17,1.39-7.76.06-.3.07-.6.11-.9l.15-.06C547.05,175.92,548,177,548.83,178Z" transform="translate(0 -1.39)"/>
      </g>
      <path class="cls-1" d="M6.71,122.17c36.31,3.29,72.62,7.12,109,9.12a717.47,717.47,0,0,0,108.41-2.62c70.93-6.82,142.21-20.13,213.67-12.88,40.06,4.06,79.69,17.81,120.31,12.83,3.78-.47,7-2.89,7-7,0-3.43-3.25-7.46-7-7-36.22,4.44-71.49-6.43-107.07-11.25-35.32-4.78-71-4.3-106.49-1.54-71.82,5.58-142.78,18.9-215.08,16.11-41-1.58-81.93-6.06-122.79-9.77-9-.82-8.92,13.19,0,14Z" transform="translate(0 -1.39)"/>
      <path class="cls-1" d="M23.37,88.05a491,491,0,0,0-3.78,55c-.12,9,13.88,9,14,0a491,491,0,0,1,3.78-55c.48-3.78-3.55-7-7-7-4.17,0-6.53,3.26-7,7Z" transform="translate(0 -1.39)"/>
      <path class="cls-1" d="M273,85.88l-3.1,60.4c-.46,9,13.54,9,14,0l3.1-60.4c.46-9-13.54-9-14,0Z" transform="translate(0 -1.39)"/>
      <path class="cls-1" d="M510.56,85.91l5.17,60.37c.76,8.91,14.77,9,14,0l-5.17-60.37c-.77-8.91-14.77-9-14,0Z" transform="translate(0 -1.39)"/>
      <path class="cls-2" d="M86.54,39q2.83,52,2,104.1c-.06,3.69,5.68,3.69,5.73,0Q95.06,91,92.28,39c-.2-3.67-5.94-3.69-5.74,0Z" transform="translate(0 -1.39)"/>
      <path class="cls-2" d="M207.93,153.05q-2.82-42.21-2-84.55c.06-3.33-5.11-3.33-5.17,0q-.76,42.3,2,84.55c.22,3.3,5.39,3.32,5.17,0Z" transform="translate(0 -1.39)"/>
      <g>
        <path class="cls-1" d="M25.53,16.73c-.45,0-.84.08-1.23.09a15,15,0,0,0-1.9.06c-.38.05-.52-.1-.69-.38-.7-1.15-1.41-2.28-2.11-3.43a.66.66,0,0,0-.64-.39c-.93.07-1.87.12-2.81.18h-.41c-.49,0-.52.05-.64.57-.18.78-.37,1.56-.56,2.34,0,.1-.08.19-.11.29a.28.28,0,0,1-.28.22L11,16.74h-.18a1,1,0,0,1,0-.31c.46-1.4.93-2.79,1.39-4.18S13,9.68,13.46,8.4c.2-.6.42-1.2.58-1.82.21-.83.38-1.68.57-2.52,0-.2,0-.41.07-.67A127.29,127.29,0,0,1,25.53,16.73Z" transform="translate(0 -1.39)"/>
        <path class="cls-1" d="M30.69,5.68c.09,1,.14,1.94.19,2.9.06,1.17.1,2.34.16,3.52,0,.18,0,.36.05.62l8.33-1.43,0,.13a.5.5,0,0,0,0,.12,14.43,14.43,0,0,1-.17,2.94c-.08.44-.08.44-.58.49-1.54.16-3.08.34-4.63.49s-3.83.26-5.34.39h-.21c-.21-.19-.18-.44-.2-.67-.06-.69-.07-1.4-.13-2.1s-.17-1.65-.3-2.47-.31-1.9-.51-2.84c-.31-1.46-.66-2.92-1-4.38a6,6,0,0,1-.11-.6c1.08-.1,2.92-.19,4.07-.21C30.48,3.67,30.61,4.67,30.69,5.68Z" transform="translate(0 -1.39)"/>
        <path class="cls-1" d="M48.47,4.2c0,.24-.13.32-.34.33-.47,0-.92.1-1.46.13-.07.46-.11.25-.19.7-.35,2-.69,4.08-1,6.12-.27,1.57-.55,3.14-.81,4.71-.14.83-.25,1.66-.4,2.49s-.25.88-1.07.66c-.27-.08-.53-.19-.81-.3a5.76,5.76,0,0,1,.21-1.95c.34-2,.71-4,1.08-5.93a31.4,31.4,0,0,0,.55-5.63,4.18,4.18,0,0,1,0-.5c0-.56-.11-.53-.66-.57l-1.9-.13c-.4,0-.81,0-1.24,0,0-.19,0-.94,0-1.1s.13-.43.44-.47c1-.11,1.91-.21,2.86-.38,1.47-.25,2.94-.55,4.41-.83l.37-.06C48.46,2.2,48.45,3.51,48.47,4.2Z" transform="translate(0 -1.39)"/>
        <path class="cls-1" d="M70,4.56c-.22-.41-.44-.81-.65-1.22-.33.09-.34.35-.42.55a3.26,3.26,0,0,0-.18,1V5c0,.55-.06,1.1-.08,1.66s0,1,0,1.54c0,1.43-.07,2.86-.1,4.29,0,.48-.05,1,0,1.44a9.09,9.09,0,0,0,.39,2.79c.06.18.1.37.15.56a1,1,0,0,0,.58.67c.22-.27.46-.54.68-.83a.4.4,0,0,0,.09-.29,3.15,3.15,0,0,1,.08-1.06c0-.23,0-.46.07-.68a9.51,9.51,0,0,0,.11-1.31v-.3c0-.22-.07-.27-.29-.26s-.55,0-.83,0-.27,0-.28-.27v0a2.79,2.79,0,0,1,.25-1.06c.53-.06,1.07-.12,1.6-.16a.76.76,0,0,1,.82.64c0,.05,0,.11,0,.17a11.38,11.38,0,0,1,0,2.26.13.13,0,0,0,0,.06v0A7.27,7.27,0,0,1,71.71,17a4.56,4.56,0,0,1-.42,1.26,2.39,2.39,0,0,1-1,1.06l-.13.06-.85.08H69.2a1.54,1.54,0,0,1-.92-.37.28.28,0,0,0-.15-.06l-.35-.65a1.11,1.11,0,0,1-.09-.19c-.13-.63-.29-1.26-.37-1.9s-.13-1.43-.16-2.14,0-1.34,0-2c0-1-.07-2,0-2.92,0-.79.12-1.57.13-2.37,0-.3.11-.61.14-.92s.06-.88.12-1.32.07-1,.11-1.54a1.74,1.74,0,0,1,1.11-1.44,2.18,2.18,0,0,1,1.68,0,.38.38,0,0,1,.17.16,1.29,1.29,0,0,1,.12.38c.06.69.11,1.39.17,2.08,0,.1,0,.25,0,.34Z" transform="translate(0 -1.39)"/>
        <path class="cls-1" d="M78.45,5.68c.08,1,.13,1.94.18,2.9.06,1.17.11,2.34.16,3.52,0,.18,0,.36.06.62l8.32-1.43a.61.61,0,0,1,0,.13.5.5,0,0,1,0,.12,13.13,13.13,0,0,1-.17,2.94c-.08.44-.08.44-.57.49-1.55.16-3.09.34-4.63.49s-3.83.26-5.34.39H76.3c-.22-.19-.18-.44-.2-.67-.06-.69-.08-1.4-.14-2.1s-.17-1.65-.29-2.47-.31-1.9-.52-2.84c-.31-1.46-.66-2.92-1-4.38,0-.18-.07-.36-.11-.6,1.08-.1,2.93-.19,4.08-.21C78.24,3.67,78.36,4.67,78.45,5.68Z" transform="translate(0 -1.39)"/>
        <path class="cls-1" d="M100.59,4.75c-1.22,1.46-2.46,2.9-3.68,4.36a9.44,9.44,0,0,0-.86,1.3,1.11,1.11,0,0,0-.12.57c0,.38,0,.76,0,1.13q-.14,3.44-.29,6.85a3.1,3.1,0,0,1-.08.42c-.3,0-.62.08-.92.07-.86,0-1-.21-1-1.08-.09-1.56-.25-3.11-.38-4.67A10,10,0,0,1,93.12,12a2,2,0,0,0-1-2c-.78-.6-1.54-1.21-2.29-1.84A6,6,0,0,1,88,5.34c-.24-.76-.24-.8.39-1.31.2-.16.41-.31.66-.49C90.48,5.18,91.6,7,93.34,8.38c.28-.38.53-.69.75-1a32.87,32.87,0,0,1,3.37-4.17c.44-.5.87-1,1.3-1.51.27-.32.51-.31.79,0,.58.65,1.17,1.28,1.84,2C101.11,4.06,100.87,4.42,100.59,4.75Z" transform="translate(0 -1.39)"/>
        <path class="cls-1" d="M102.64,15.41c0-1.55.11-3.09.19-4.63s.22-2.82.31-4.23c.07-1.14.1-2.29.14-3.43,0-.59,0-.61.6-.7,1.06-.18,2.1-.4,3.16-.57a20.67,20.67,0,0,1,4.77-.37,35.5,35.5,0,0,1,3.54.51,5.23,5.23,0,0,1,2.72,1.53,2.24,2.24,0,0,0,.37.32.93.93,0,0,1,.48.86,3.31,3.31,0,0,1-.3,1.41A3.17,3.17,0,0,1,117,7.78a64.24,64.24,0,0,1-7.32,3.06,11.69,11.69,0,0,1-1.18.4c-.36.09-.44.32-.46.63,0,.6-.1,1.19-.17,1.79-.15,1.39-.32,2.78-.48,4.16,0,.4-.06.8-.09,1.19s-.11.48-.51.41l-3.54-.59a5.2,5.2,0,0,1-.57-.16C102.63,17.54,102.61,16.47,102.64,15.41Z" transform="translate(0 -1.39)"/>
        <path class="cls-1" d="M134.16,2.86a1.54,1.54,0,0,1,.07.87c-.16,1.74-.33,3.49-.51,5.23-.15,1.4-.31,2.8-.46,4.2l-.33,3.12-.07.38h-.5c-.51-.06-1-.11-1.52-.22s-.57-.14-.55-.73c0-1.46.06-2.92.09-4.38,0-.54,0-.6-.54-.49-.91.2-1.83.42-2.74.61q-1,.21-1.92.36c-.52.08-.53.07-.52.62l.09,4.48c0,.09,0,.19,0,.33a11.18,11.18,0,0,1-2.26.26c-.06-.62-.12-1.18-.17-1.75-.15-1.58-.3-3.16-.43-4.74-.09-1-.14-1.93-.23-2.89-.16-1.66-.33-3.32-.49-5a1.34,1.34,0,0,1,0-.2l2.55-.57c.07.84.15,1.69.22,2.54.09,1.08.16,2.16.24,3.24l.07.33c0,.24.21.34.41.28a8.08,8.08,0,0,1,1.83-.2c1-.12,2-.19,3.06-.28l.5,0c.48,0,.51,0,.54-.55,0-.73.08-1.47.08-2.21s0-1.53,0-2.3c0-.12,0-.23,0-.37A17.21,17.21,0,0,1,134.16,2.86Z" transform="translate(0 -1.39)"/>
        <path class="cls-1" d="M139.81,3.2l-.41.2c-.47.22-.94.43-1.4.66a1.72,1.72,0,0,0-1,1.43c0,.38,0,.77-.09,1.17,0,.15.09.22.26.29l1.18.47a4.35,4.35,0,0,1,1.5,1.15,6,6,0,0,1,.59.74,2.92,2.92,0,0,1,.41,1.38,14.21,14.21,0,0,1,.12,2.26,1.81,1.81,0,0,1-1.08,1.37l-4,1.71c-.36.15-.75.26-1.16.4l0-.1,0-.1c0-.43,0-.86-.07-1.28,0-.19.07-.3.27-.4.8-.44,2-1.2,2.77-1.71.18-.13.34-.27.52-.39a1.29,1.29,0,0,0,.7-1.45A1.71,1.71,0,0,0,138,9.84c-.85-.51-1.67-1.05-2.51-1.57a1.65,1.65,0,0,1-.77-1.19,4.94,4.94,0,0,1-.12-.94,4.32,4.32,0,0,1,1.18-2.62c.33-.39.7-.75,1.06-1.11a1.72,1.72,0,0,1,.43-.32l1.69-.7A9.32,9.32,0,0,1,139.81,3.2Z" transform="translate(0 -1.39)"/>
      </g>
      <g>
        <path class="cls-1" d="M142.34,52.91c0-1.54.11-3.09.19-4.63s.22-2.82.31-4.23c.07-1.14.1-2.28.14-3.43,0-.58.05-.6.6-.7,1.06-.18,2.1-.39,3.16-.56a20.67,20.67,0,0,1,4.77-.38,32.83,32.83,0,0,1,3.54.52A5.15,5.15,0,0,1,157.77,41a1.85,1.85,0,0,0,.37.32.94.94,0,0,1,.48.86,3.36,3.36,0,0,1-.3,1.42,3.15,3.15,0,0,1-1.67,1.66,62.48,62.48,0,0,1-7.32,3.06c-.39.14-.78.3-1.18.4s-.44.32-.46.64c-.05.59-.1,1.19-.17,1.78-.15,1.39-.32,2.78-.48,4.17,0,.39-.06.79-.09,1.19s-.11.47-.51.41l-3.54-.6a3.64,3.64,0,0,1-.57-.16C142.33,55.05,142.31,54,142.34,52.91Z" transform="translate(0 -1.39)"/>
        <path class="cls-1" d="M171.46,53.77c-1.05-.07-2.1-.17-3.15-.19a.89.89,0,0,1-.84-.57c-.23-.46-.49-.9-.8-1.45-.61.61-1.18,1.12-1.67,1.7a1.47,1.47,0,0,1-1.17.54h-1.89a1.71,1.71,0,0,1-1.34-.8,5.05,5.05,0,0,1-.8-2.55,32,32,0,0,1,.78-6.17c.19-1,.49-2,.77-3a3.21,3.21,0,0,1,.47-.76l2,.22a28,28,0,0,1-.58,6,4.68,4.68,0,0,0,0,1.29.59.59,0,0,0,.58.53.73.73,0,0,0,.83-.41c.7-1.63,1.4-3.25,2.08-4.88.17-.42.39-.7.86-.63h.42c1.1-.08,1.15-.1,1.45,1,.55,2.18,1.05,4.37,1.55,6.57.26,1.13.49,2.27.73,3.45A2.23,2.23,0,0,1,171.46,53.77Z" transform="translate(0 -1.39)"/>
        <path class="cls-1" d="M179,41.1c.58.72,1.12,1.44,1.68,2.17l1.68,2.22c.54.72,1,1.49,1.65,2.19.06-.11.1-.15.1-.18,0-1.69.1-3.37.23-5,.09-1.05.06-2.1.08-3.16,0-.27.15-.41.38-.31,1.06.45,2.1.92,3.21,1.41,0,.33-.05.66-.1,1-.21,1.35-.42,2.7-.66,4.05-.27,1.52-.57,3-.88,4.54s-.62,2.92-.94,4.38a6.21,6.21,0,0,1-.28.77,3.23,3.23,0,0,1-.46-.41c-.43-.59-.85-1.18-1.26-1.78s-.93-1.34-1.38-2c-.57-.88-1.15-1.77-1.69-2.68s-1-1.84-1.54-2.75a4.93,4.93,0,0,0-.34-.44c-.06.21-.12.33-.14.46-.19,1.69-.39,3.38-.56,5.07-.11,1.11-.14,2.23-.25,3.34s-.26,2-.4,3c-1.44.07-2.87,0-4.33.06a1.24,1.24,0,0,1,0-.31c.2-.63.41-1.25.63-1.88s.47-1.33.69-2a67.45,67.45,0,0,0,2-7.93c.29-1.74.62-3.47.93-5.2,0-.2.05-.41.07-.61l.1,0C177.75,39.69,178.37,40.38,179,41.1Z" transform="translate(0 -1.39)"/>
        <path class="cls-1" d="M194.43,46.38c-.08.82,0,1,.58,1.13a11,11,0,0,0,1.4.11c.24,0,.62,0,.86,0a19.4,19.4,0,0,1,2.85.05c.89,0,1.78.12,2.67.19a4.43,4.43,0,0,1,.73.14c.07.66.16,1.27.2,1.89s-.1.73-.57.75l-4,.16c-.6,0-1.2.13-1.8.13-1.38,0-2.75.07-4.13,0A6.31,6.31,0,0,1,190,49.22a1.65,1.65,0,0,1-.3-1.87q.41-.76.84-1.5a2,2,0,0,1,.48-.58,17.64,17.64,0,0,1,3.06-1.8,42.36,42.36,0,0,1,4.61-1.76c.41-.14.8-.37,1.21-.51s1.12-.34,1.68-.5c.71-.2,1.19.22,1.29,1.15,0,.19,0,.39,0,.71C199.81,43.14,197.14,44.9,194.43,46.38Z" transform="translate(0 -1.39)"/>
        <path class="cls-1" d="M213.38,41.7c0,.24-.13.33-.35.34-.46,0-.92.09-1.45.12-.08.46-.11.25-.19.71-.35,2-.7,4.07-1,6.11-.27,1.57-.55,3.15-.82,4.72-.14.82-.24,1.66-.39,2.48s-.26.89-1.07.66c-.27-.07-.53-.19-.82-.29a6.09,6.09,0,0,1,.22-2c.34-2,.71-4,1.08-5.93A32.25,32.25,0,0,0,209.1,43c0-.16,0-.33,0-.49,0-.57-.1-.54-.65-.58l-1.9-.13c-.41,0-.81,0-1.24,0,0-.2-.06-.94-.06-1.1s.13-.44.45-.47c.95-.11,1.91-.22,2.86-.39,1.47-.25,2.94-.55,4.41-.82a1.89,1.89,0,0,1,.36-.06C213.37,39.71,213.35,41,213.38,41.7Z" transform="translate(0 -1.39)"/>
        <path class="cls-1" d="M226.12,53.77c-1.05-.07-2.09-.17-3.14-.19a.87.87,0,0,1-.84-.57c-.24-.46-.5-.9-.8-1.45-.62.61-1.18,1.12-1.68,1.7a1.44,1.44,0,0,1-1.16.54h-1.89a1.71,1.71,0,0,1-1.34-.8,5,5,0,0,1-.81-2.55,32,32,0,0,1,.79-6.17,31.25,31.25,0,0,1,.77-3,3.21,3.21,0,0,1,.47-.76l2,.22a27.42,27.42,0,0,1-.59,6A5.12,5.12,0,0,0,218,48a.58.58,0,0,0,.57.53.74.74,0,0,0,.84-.41c.69-1.63,1.39-3.25,2.08-4.88.17-.42.39-.7.86-.63h.42c1.1-.08,1.15-.1,1.44,1,.56,2.18,1.05,4.37,1.56,6.57.26,1.13.48,2.27.73,3.45A2.32,2.32,0,0,1,226.12,53.77Z" transform="translate(0 -1.39)"/>
        <path class="cls-1" d="M242.1,54.23c-.45,0-.84.08-1.24.09a17,17,0,0,0-1.89.06c-.38.06-.52-.1-.69-.37-.7-1.15-1.41-2.29-2.12-3.43a.62.62,0,0,0-.63-.39c-.94.07-1.88.11-2.81.17h-.42c-.48,0-.51,0-.63.56-.18.79-.37,1.57-.56,2.35,0,.1-.08.19-.11.29a.31.31,0,0,1-.28.22l-3.18.45h-.19a1.47,1.47,0,0,1,0-.31c.46-1.39.93-2.78,1.39-4.18s.85-2.55,1.27-3.83c.2-.61.41-1.21.57-1.83.22-.83.39-1.68.57-2.52a5.82,5.82,0,0,0,.07-.66A125,125,0,0,1,242.1,54.23Z" transform="translate(0 -1.39)"/>
        <path class="cls-1" d="M250.26,41.7c0,.24-.13.33-.34.34-.47,0-.93.09-1.46.12-.07.46-.11.25-.19.71-.35,2-.69,4.07-1,6.11-.27,1.57-.55,3.15-.82,4.72-.14.82-.24,1.66-.39,2.48s-.25.89-1.07.66c-.27-.07-.53-.19-.81-.29a5.82,5.82,0,0,1,.21-2c.34-2,.71-4,1.08-5.93A31.32,31.32,0,0,0,246,43a4,4,0,0,1,0-.49c0-.57-.11-.54-.66-.58l-1.9-.13c-.4,0-.81,0-1.24,0,0-.2-.06-.94-.06-1.1a.43.43,0,0,1,.45-.47c1-.11,1.91-.22,2.86-.39,1.47-.25,2.94-.55,4.41-.82a2.19,2.19,0,0,1,.37-.06C250.25,39.71,250.24,41,250.26,41.7Z" transform="translate(0 -1.39)"/>
        <path class="cls-1" d="M251.57,53.13c.45-1.44.92-2.88,1.35-4.34a10.73,10.73,0,0,0,.5-2.7c0-.27.06-.31.35-.28l2.5.34a.29.29,0,0,1,.28.35,9.23,9.23,0,0,1-.16,1.4c-.46,1.88-1,3.74-1.45,5.6-.07.27-.11.54-.18.81s-.19.43-.56.39a17.17,17.17,0,0,1-2.88-.52C251.41,53.81,251.47,53.47,251.57,53.13Zm4.62-8.31L254,44.65a.77.77,0,0,1-.13-.68c.2-1.06.39-2.13.58-3.24a27,27,0,0,1,2.7-.25C256.91,42,256.47,43.35,256.19,44.82Z" transform="translate(0 -1.39)"/>
        <path class="cls-1" d="M258.91,43.44A10.91,10.91,0,0,1,260.26,41s0,0,0-.06c.32-1.11,1.32-1.46,2.19-1.92a1.24,1.24,0,0,1,.83,0,4.1,4.1,0,0,1,2.46,2.09,11.55,11.55,0,0,1,.93,9.78,18.94,18.94,0,0,1-1.26,2.4c-.35.65-.72,1.28-1.07,1.92-.14.23-.25.48-.41.7s-.4.67-.69.8a2.44,2.44,0,0,1-1.8.15c-.9-.33-1.77-.72-2.64-1.12a1.07,1.07,0,0,1-.43-.46,6.87,6.87,0,0,1-.9-3.23c0-.61,0-1.22,0-1.83A14,14,0,0,1,258.91,43.44Z" transform="translate(0 -1.39)"/>
        <path class="cls-1" d="M274.62,41.1c.58.72,1.12,1.44,1.68,2.17L278,45.49c.54.72,1,1.49,1.65,2.19.06-.11.1-.15.1-.18,0-1.69.1-3.37.23-5,.09-1.05.06-2.1.08-3.16,0-.27.15-.41.38-.31,1.06.45,2.1.92,3.21,1.41,0,.33-.05.66-.1,1-.21,1.35-.42,2.7-.66,4.05-.27,1.52-.57,3-.88,4.54s-.62,2.92-.94,4.38a6.21,6.21,0,0,1-.28.77,3.23,3.23,0,0,1-.46-.41c-.43-.59-.85-1.18-1.26-1.78s-.93-1.34-1.38-2c-.57-.88-1.15-1.77-1.69-2.68s-1-1.84-1.54-2.75c-.08-.13-.19-.24-.34-.44a3.08,3.08,0,0,0-.14.46c-.19,1.69-.39,3.38-.56,5.07-.11,1.11-.14,2.23-.25,3.34s-.26,2-.4,3c-1.45.07-2.87,0-4.33.06a1.24,1.24,0,0,1,0-.31c.2-.63.41-1.25.63-1.88s.47-1.33.69-2a69.5,69.5,0,0,0,2-7.93c.29-1.74.62-3.47.93-5.2,0-.2,0-.41.07-.61l.1,0C273.42,39.69,274,40.38,274.62,41.1Z" transform="translate(0 -1.39)"/>
      </g>
    </g>
  </g>
</svg>
